<?xml version="1.0" encoding="UTF-8"?>
<svg id="Layer_2" data-name="Layer 2" xmlns="http://www.w3.org/2000/svg" xmlns:xlink="http://www.w3.org/1999/xlink" viewBox="0 0 4156.21 751.18">
  <defs>
    <style>
      .cls-1 {
        fill: url(#linear-gradient);
      }

      .cls-2 {
        fill: #eeeded;
      }
    </style>
    <linearGradient id="linear-gradient" x1="0" y1="432.64" x2="858.37" y2="432.64" gradientTransform="translate(0 808.23) scale(1 -1)" gradientUnits="userSpaceOnUse">
      <stop offset=".25" stop-color="#0a71b9"/>
      <stop offset=".55" stop-color="#c8c6c7"/>
      <stop offset=".81" stop-color="#2273ba"/>
    </linearGradient>
  </defs>
  <g id="Layer_1-2" data-name="Layer 1">
    <g>
      <path class="cls-2" d="M1235.43,299.62c0,24.52-3.83,45.9-11.44,64.15-7.65,18.25-18.48,33.39-32.48,45.37-14.04,11.97-31.14,21-51.29,26.97-20.16,6.01-42.76,8.99-67.86,8.99-11.44,0-24.79-.5-40.05-1.42-15.26-.96-30.26-2.91-44.95-5.93V161.88c14.73-2.72,30.03-4.55,45.98-5.51,15.95-.96,29.64-1.42,41.08-1.42,24.25,0,46.25,2.72,65.98,8.19,19.74,5.47,36.72,14.04,50.87,25.74s25.05,26.7,32.7,44.95c7.61,18.25,11.44,40.2,11.44,65.79h0ZM1051.14,389.51c2.98.27,6.46.46,10.4.61,3.94.15,8.64.19,14.11.19,31.86,0,55.5-8.03,70.92-24.1,15.38-16.07,23.1-38.29,23.1-66.63s-7.34-52.17-22.07-67.44c-14.73-15.26-38.02-22.87-69.88-22.87-4.36,0-8.87.08-13.5.19-4.63.15-8.99.46-13.08,1.03v179.02h0Z"/>
      <path class="cls-2" d="M1371.53,154.96c42.5,0,75.05,7.57,97.66,22.68,22.61,15.11,33.93,38.63,33.93,70.5,0,19.89-4.55,36.03-13.69,48.43s-22.26,22.15-39.44,29.22c5.74,7.08,11.7,15.19,17.98,24.33,6.27,9.14,12.47,18.67,18.59,28.61,6.12,9.95,12.05,20.31,17.79,31.06,5.74,10.75,11.02,21.31,15.95,31.67h-71.26c-5.2-9.26-10.48-18.67-15.8-28.19-5.32-9.52-10.79-18.78-16.41-27.77s-11.17-17.52-16.6-25.55c-5.47-8.03-10.94-15.34-16.41-21.88h-31.48v103.39h-63.76V162.34c13.89-2.72,28.27-4.63,43.11-5.74,14.84-1.07,28.11-1.64,39.86-1.64ZM1375.2,209.31c-4.63,0-8.8.15-12.47.42-3.67.27-7.15.54-10.4.8v76.85h17.98c23.98,0,41.12-2.98,51.49-8.99,10.37-6.01,15.53-16.22,15.53-30.64s-5.24-23.75-15.72-29.64c-10.48-5.85-25.93-8.8-46.4-8.8h0Z"/>
      <path class="cls-2" d="M1561.14,441.42V158.21h191.26v53.55h-127.49v55.58h113.18v52.33h-113.18v68.24h136.9v53.55h-200.67v-.04Z"/>
      <path class="cls-2" d="M1998.81,441.42c-3.17-9.83-6.54-19.93-10.17-30.33-3.63-10.37-22.38-71.38-25.97-81.67h-80.98c-3.56,10.33-21.65,71.38-25.25,81.74-3.6,10.37-6.96,20.46-10.02,30.22h-66.21c10.67-30.52,20.77-58.72,30.33-84.61,9.56-25.9,18.93-50.26,28.08-73.14s18.17-44.6,27.04-65.18c8.87-20.58,18.09-40.66,27.69-60.28h60.44c9.29,19.62,18.48,39.7,27.5,60.28,9.03,20.58,18.13,42.31,27.31,65.18,9.18,22.87,18.55,47.28,28.11,73.14,9.56,25.9,19.7,54.09,30.37,84.61h-68.28v.04ZM1922.19,222.39c-1.42,4.13-3.52,9.72-6.23,16.79-2.75,7.08-5.85,15.26-9.37,24.56-3.52,9.29-7.42,19.51-11.74,30.64-4.32,11.17-8.72,22.84-13.2,35.08h80.98c-4.32-12.28-8.53-24.02-12.58-35.19-4.05-11.17-7.92-21.42-11.59-30.72-3.67-9.26-6.85-17.44-9.64-24.52-2.75-7.08-4.97-12.62-6.69-16.64h.08Z"/>
      <path class="cls-2" d="M2178.66,158.21c4.93,8.99,10.6,20.08,17.02,33.32,6.43,13.23,13.12,27.54,20.08,42.92s13.85,31.14,20.69,47.2c6.81,16.07,13.23,31.21,19.28,45.37,6.01-14.15,12.43-29.3,19.24-45.37,6.85-16.07,13.73-31.82,20.69-47.2s13.66-29.68,20.08-42.92c6.43-13.2,12.09-24.33,17.02-33.32h58.03c2.72,18.78,5.24,39.86,7.57,63.15,2.3,23.29,4.36,47.55,6.12,72.75s3.4,50.45,4.9,75.81c1.49,25.32,2.79,49.19,3.86,71.53h-62.12c-.8-27.5-1.91-57.49-3.29-89.89-1.38-32.44-3.4-65.1-6.12-98.08-4.93,11.44-10.4,24.1-16.41,38.02-6.01,13.89-11.97,27.77-17.83,41.69-5.85,13.92-11.55,27.16-17.02,39.86-5.47,12.66-10.1,23.49-13.92,32.48h-44.56c-3.83-8.99-8.45-19.81-13.92-32.48-5.47-12.66-11.13-25.93-17.02-39.86-5.89-13.92-11.82-27.81-17.83-41.69-6.01-13.89-11.48-26.58-16.41-38.02-2.72,32.97-4.78,65.68-6.12,98.08-1.38,32.44-2.45,62.39-3.25,89.89h-62.12c1.07-22.34,2.37-46.17,3.86-71.53,1.49-25.32,3.14-50.61,4.9-75.81,1.76-25.21,3.83-49.46,6.12-72.75,2.3-23.29,4.82-44.33,7.57-63.15h60.9,0Z"/>
      <path class="cls-2" d="M2547.25,392.8c8.99,0,16.41-.77,22.26-2.26,5.85-1.49,10.56-3.52,14.11-6.12s6.01-5.66,7.34-9.18c1.38-3.56,2.03-7.5,2.03-11.86,0-9.26-4.36-16.95-13.08-23.1-8.72-6.12-23.72-12.74-44.95-19.81-9.26-3.25-18.51-7-27.77-11.25-9.26-4.21-17.56-9.52-24.94-15.95-7.34-6.39-13.35-14.15-17.98-23.29-4.63-9.14-6.96-20.23-6.96-33.32s2.45-24.86,7.34-35.34,11.86-19.43,20.85-26.78c8.99-7.34,19.89-13.01,32.7-16.95,12.81-3.94,27.23-5.93,43.34-5.93,19.05,0,35.54,2.03,49.46,6.12,13.89,4.09,25.32,8.57,34.31,13.5l-18.4,50.26c-7.92-4.09-16.68-7.69-26.36-10.83-9.68-3.14-21.31-4.7-34.92-4.7-15.26,0-26.24,2.1-32.9,6.35-6.69,4.25-10.02,10.71-10.02,19.43,0,5.16,1.22,9.52,3.67,13.08,2.45,3.56,5.93,6.73,10.4,9.6,4.48,2.87,9.68,5.43,15.53,7.76s12.32,4.7,19.43,7.15c14.73,5.47,27.5,10.83,38.4,16.14s19.97,11.51,27.16,18.59c7.23,7.08,12.58,15.42,16.14,24.94,3.52,9.52,5.32,21.11,5.32,34.73,0,26.43-9.26,46.93-27.81,61.51-18.51,14.57-46.44,21.88-83.77,21.88-12.55,0-23.83-.77-33.93-2.26-10.1-1.49-19.01-3.33-26.78-5.51s-14.46-4.48-20.04-6.96c-5.58-2.45-10.29-4.78-14.11-6.96l17.98-50.68c8.45,4.63,18.86,8.8,31.25,12.47,12.39,3.67,27.58,5.51,45.56,5.51h.11Z"/>
      <path class="cls-2" d="M2976.77,158.21h63.76v283.21h-63.76v-120.15h-107.06v120.15h-63.76V158.21h63.76v108.29h107.06v-108.29Z"/>
      <path class="cls-2" d="M3375.66,299.62c0,24.25-3.6,45.56-10.83,63.96-7.23,18.4-17.1,33.78-29.64,46.17-12.55,12.39-27.46,21.73-44.75,28s-35.92,9.41-55.77,9.41-37.6-3.14-54.78-9.41-32.17-15.61-44.95-28c-12.81-12.39-22.87-27.77-30.26-46.17-7.34-18.4-11.02-39.7-11.02-63.96s3.83-45.56,11.44-63.96c7.61-18.4,17.9-33.85,30.87-46.4,12.93-12.55,27.92-21.92,44.95-28.19,17.02-6.27,34.92-9.41,53.74-9.41s37.6,3.14,54.78,9.41c17.17,6.27,32.13,15.68,44.95,28.19,12.81,12.55,22.87,28,30.26,46.4,7.34,18.4,11.02,39.7,11.02,63.96h0ZM3159.46,299.62c0,13.89,1.68,26.43,5.09,37.6,3.4,11.17,8.3,20.77,14.73,28.8,6.39,8.03,14.23,14.23,23.49,18.59,9.26,4.36,19.89,6.54,31.86,6.54s22.26-2.18,31.67-6.54c9.41-4.36,17.29-10.56,23.72-18.59,6.39-8.03,11.32-17.63,14.73-28.8,3.4-11.17,5.09-23.72,5.09-37.6s-1.72-26.51-5.09-37.79c-3.4-11.32-8.3-20.96-14.73-29.03-6.39-8.03-14.31-14.23-23.72-18.59-9.41-4.36-19.97-6.54-31.67-6.54s-22.61,2.26-31.86,6.73c-9.26,4.48-17.1,10.75-23.49,18.82-6.39,8.03-11.32,17.71-14.73,28.99-3.4,11.32-5.09,23.75-5.09,37.41h0Z"/>
      <path class="cls-2" d="M3539.52,447.16c-19.89,0-37.07-2.79-51.49-8.38-14.46-5.58-26.36-13.35-35.76-23.29-9.41-9.95-16.33-21.8-20.85-35.54-4.48-13.77-6.73-28.96-6.73-45.56v-176.15h63.76v170.83c0,11.44,1.3,21.19,3.86,29.22,2.6,8.03,6.12,14.57,10.63,19.62,4.48,5.05,9.95,8.64,16.33,10.83,6.39,2.18,13.43,3.25,21.04,3.25,15.53,0,28.11-4.78,37.79-14.31s14.5-25.74,14.5-48.62v-170.83h63.76v176.15c0,16.64-2.33,31.86-6.96,45.79-4.63,13.89-11.7,25.82-21.27,35.76-9.52,9.95-21.65,17.63-36.38,23.1-14.73,5.43-32.17,8.19-52.29,8.19l.04-.08Z"/>
      <path class="cls-2" d="M3794.93,392.8c8.99,0,16.41-.77,22.26-2.26,5.85-1.49,10.56-3.52,14.11-6.12,3.52-2.6,6.01-5.66,7.34-9.18,1.38-3.56,2.03-7.5,2.03-11.86,0-9.26-4.36-16.95-13.08-23.1-8.72-6.12-23.72-12.74-44.95-19.81-9.26-3.25-18.51-7-27.81-11.25-9.26-4.21-17.56-9.52-24.94-15.95-7.34-6.39-13.35-14.15-17.98-23.29-4.63-9.14-6.96-20.23-6.96-33.32s2.45-24.86,7.34-35.34c4.9-10.48,11.86-19.43,20.85-26.78,8.99-7.34,19.89-13.01,32.7-16.95,12.81-3.94,27.23-5.93,43.34-5.93,19.09,0,35.54,2.03,49.46,6.12,13.92,4.09,25.32,8.57,34.31,13.5l-18.4,50.26c-7.92-4.09-16.68-7.69-26.36-10.83-9.68-3.14-21.31-4.7-34.92-4.7-15.26,0-26.24,2.1-32.9,6.35-6.69,4.25-10.02,10.71-10.02,19.43,0,5.16,1.22,9.52,3.67,13.08,2.45,3.56,5.93,6.73,10.4,9.6,4.51,2.87,9.68,5.43,15.53,7.76,5.85,2.33,12.32,4.7,19.39,7.15,14.73,5.47,27.5,10.83,38.4,16.14s19.97,11.51,27.2,18.59c7.23,7.08,12.58,15.42,16.14,24.94s5.32,21.11,5.32,34.73c0,26.43-9.26,46.93-27.77,61.51s-46.44,21.88-83.77,21.88c-12.55,0-23.83-.77-33.93-2.26-10.1-1.49-19.01-3.33-26.78-5.51s-14.46-4.48-20.01-6.96c-5.58-2.45-10.29-4.78-14.11-6.96l17.98-50.68c8.45,4.63,18.86,8.8,31.25,12.47,12.39,3.67,27.58,5.51,45.56,5.51h.08Z"/>
      <path class="cls-2" d="M3955.54,441.42V158.21h191.26v53.55h-127.49v55.58h113.19v52.33h-113.19v68.24h136.9v53.55h-200.67v-.04Z"/>
    </g>
    <g>
      <path class="cls-2" d="M1064.56,688.52h-55.08c-14.92,0-21.88-3.37-21.88-21.08v-16.3c0-3.79,1.61-5.36,5.36-5.36h9.56c3.79,0,5.36,1.61,5.36,5.36v11.13c0,5.78,1.19,6.96,7.15,6.96h43.76c5.97,0,7.15-1.19,7.15-6.96v-28.84c0-5.78-1.19-6.96-7.15-6.96h-49.54c-14.92,0-21.88-3.37-21.88-21.08v-39.36c0-17.71,6.96-21.08,21.88-21.08h55.08c14.92,0,21.88,3.37,21.88,21.08v16.3c0,3.79-1.61,5.36-5.36,5.36h-9.75c-3.79,0-5.36-1.61-5.36-5.36v-10.94c0-5.78-1.19-6.96-7.15-6.96h-43.76c-5.97,0-7.15,1.19-7.15,6.96v28.84c0,5.78,1.19,6.96,7.15,6.96h49.73c14.92,0,21.88,3.37,21.88,21.08v39.17c0,17.71-6.96,21.08-21.88,21.08Z"/>
      <path class="cls-2" d="M1330.68,683.17c0,3.79-1.61,5.36-5.36,5.36h-9.56c-3.79,0-5.36-1.61-5.36-5.36v-77.57c0-5.78-1.19-6.96-7.15-6.96h-31.02c-5.97,0-7.15,1.19-7.15,6.96v77.57c0,3.79-1.61,5.36-5.36,5.36h-9.56c-3.79,0-5.36-1.61-5.36-5.36v-77.57c0-5.78-1.19-6.96-7.15-6.96h-31.44c-5.97,0-7.15,1.19-7.15,6.96v77.57c0,3.79-1.61,5.36-5.36,5.36h-9.75c-3.79,0-5.36-1.61-5.36-5.36v-82.97c0-17.71,6.96-21.08,21.88-21.08h37.6c7.57,0,13.31.99,16.91,7.96,3.6-6.96,8.95-7.96,16.52-7.96h37.41c14.92,0,21.88,3.37,21.88,21.08v82.97h-.11Z"/>
      <path class="cls-2" d="M1490.99,688.52h-48.35c-14.92,0-21.88-3.37-21.88-21.08v-26.24c0-17.71,6.96-21.08,21.88-21.08h49.73v-14.54c0-5.78-1.19-6.96-7.15-6.96h-56.88c-3.79,0-5.36-1.61-5.36-5.36v-8.76c0-3.79,1.61-5.36,5.36-5.36h62.66c14.92,0,21.88,3.37,21.88,21.08v67.25c0,17.71-6.96,21.08-21.88,21.08v-.04ZM1492.4,662.24v-22.68h-44.14c-5.97,0-7.15,1.19-7.15,6.96v15.72c0,5.78,1.19,6.96,7.15,6.96h36.99c5.97,0,7.15-1.19,7.15-6.96Z"/>
      <path class="cls-2" d="M1625.06,683.17c0,3.79-1.61,5.36-5.36,5.36h-9.75c-3.79,0-5.36-1.61-5.36-5.36v-82.97c0-17.71,6.96-21.08,21.88-21.08h39.4c3.79,0,5.36,1.61,5.36,5.36v8.76c0,3.79-1.61,5.36-5.36,5.36h-33.62c-5.97,0-7.15,1.19-7.15,6.96v77.57l-.04.04Z"/>
      <path class="cls-2" d="M1808.85,683.17c0,3.79-1.61,5.36-5.36,5.36h-15.91c-14.92,0-21.88-3.37-21.88-21.08v-68.81h-12.74c-3.79,0-5.36-1.61-5.36-5.36v-8.76c0-3.79,1.61-5.36,5.36-5.36h12.74v-35.61c0-3.79,1.61-5.36,5.36-5.36h9.75c3.79,0,5.36,1.61,5.36,5.36v35.61h17.29c3.79,0,5.36,1.61,5.36,5.36v8.76c0,3.79-1.61,5.36-5.36,5.36h-17.29v63.65c0,5.78,1.19,6.96,7.15,6.96h10.14c3.79,0,5.36,1.61,5.36,5.36v8.57h.04Z"/>
      <path class="cls-2" d="M2078.94,688.52h-70.23c-3.79,0-5.36-1.61-5.36-5.36v-132.88c0-3.79,1.61-5.36,5.36-5.36h70c14.92,0,21.88,3.37,21.88,21.08v33.2c0,10.14-2.18,15.53-7.96,18.32,5.78,2.79,8.15,8.34,8.15,18.28v31.63c0,17.71-6.96,21.08-21.88,21.08h.04ZM2080.36,600.01v-28.65c0-5.78-1.19-6.96-7.15-6.96h-49.34v42.38h49.34c6.35,0,7.15-1.19,7.15-6.77ZM2080.36,662.47v-29.03c0-5.78-1.19-6.96-7.15-6.96h-49.34v42.76h49.34c6.35,0,7.15-1.19,7.15-6.77Z"/>
      <path class="cls-2" d="M2264.35,688.52h-48.35c-14.92,0-21.88-3.37-21.88-21.08v-82.93c0-3.79,1.61-5.36,5.36-5.36h9.75c3.79,0,5.36,1.61,5.36,5.36v77.76c0,5.78,1.19,6.96,7.15,6.96h36.99c5.97,0,7.15-1.19,7.15-6.96v-77.76c0-3.79,1.61-5.36,5.36-5.36h9.56c3.79,0,5.36,1.61,5.36,5.36v82.93c0,17.71-6.96,21.08-21.88,21.08h.08Z"/>
      <path class="cls-2" d="M2408.94,683.17c0,3.79-1.61,5.36-5.36,5.36h-9.56c-3.79,0-5.36-1.61-5.36-5.36v-84.53h-14.11c-3.79,0-5.36-1.61-5.36-5.36v-8.76c0-3.79,1.61-5.36,5.36-5.36h29.03c3.79,0,5.36,1.61,5.36,5.36v98.65ZM2408.94,559.04c0,3.79-1.61,5.36-5.36,5.36h-9.56c-3.79,0-5.36-1.61-5.36-5.36v-8.76c0-3.79,1.61-5.36,5.36-5.36h9.56c3.79,0,5.36,1.61,5.36,5.36v8.76Z"/>
      <path class="cls-2" d="M2544.38,683.17c0,3.79-1.61,5.36-5.36,5.36h-15.91c-14.92,0-21.88-3.37-21.88-21.08v-132.65c0-3.79,1.61-5.36,5.36-5.36h9.75c3.79,0,5.36,1.61,5.36,5.36v127.49c0,5.78,1.19,6.96,7.15,6.96h10.14c3.79,0,5.36,1.61,5.36,5.36v8.57h.04Z"/>
      <path class="cls-2" d="M2697.35,688.52h-48.35c-14.92,0-21.88-3.37-21.88-21.08v-67.25c0-17.71,6.96-21.08,21.88-21.08h49.92v-44.37c0-3.79,1.61-5.36,5.36-5.36h9.56c3.79,0,5.36,1.61,5.36,5.36v132.65c0,17.71-6.96,21.08-21.88,21.08l.04.04ZM2698.96,662.24v-63.65h-44.14c-5.97,0-7.15,1.19-7.15,6.96v56.69c0,5.78,1.19,6.96,7.15,6.96h36.99c5.97,0,7.15-1.19,7.15-6.96h0Z"/>
    </g>
    <path class="cls-1" d="M829.27,751.18c-5.02,0-10.06-1.3-14.55-3.89l-130.95-75.59c-9-5.19-14.55-14.81-14.55-25.2v-294.01l-240.05-138.61-240.05,138.61v243.59l72.75-42.01v-142.81c0-10.39,5.55-20,14.55-25.2l138.21-79.79c9-5.19,20.09-5.19,29.09,0l138.21,79.79c9,5.19,14.55,14.81,14.55,25.2v159.6c0,16.06-13.03,29.09-29.09,29.09s-29.09-13.03-29.09-29.09v-142.81l-109.12-63-109.12,63v142.81c0,10.39-5.55,20-14.55,25.2l-130.95,75.61c-9,5.19-20.09,5.19-29.09,0-9-5.19-14.55-14.81-14.55-25.2v-310.8c0-10.41,5.55-20,14.55-25.2l269.16-155.4c9-5.19,20.09-5.19,29.09,0l269.16,155.4c9,5.19,14.55,14.81,14.55,25.2v293.98l72.75,42.01v-394.79L429.18,62.69,58.18,276.89v445.18c0,16.06-13.03,29.09-29.09,29.09s-29.09-13.03-29.09-29.09v-461.97c0-10.39,5.55-20,14.55-25.2L414.64,3.89c9-5.19,20.09-5.19,29.09,0l400.09,231.01c9,5.19,14.55,14.81,14.55,25.2v461.99c0,10.39-5.55,20-14.55,25.2-4.49,2.6-9.53,3.89-14.55,3.89Z"/>
  </g>
</svg>