<?xml version="1.0" encoding="UTF-8"?>
<svg id="Layer_2" data-name="Layer 2" xmlns="http://www.w3.org/2000/svg" xmlns:xlink="http://www.w3.org/1999/xlink" viewBox="0 0 828.43 507.91">
  <defs>
    <style>
      .cls-1 {
        fill: url(#linear-gradient);
      }

      .cls-2 {
        fill: #3d3d3b;
      }
    </style>
    <linearGradient id="linear-gradient" x1="216.76" y1="170.69" x2="606.85" y2="170.69" gradientUnits="userSpaceOnUse">
      <stop offset=".25" stop-color="#0070ba"/>
      <stop offset=".55" stop-color="#585857"/>
      <stop offset=".81" stop-color="#2072b9"/>
    </linearGradient>
  </defs>
  <g id="Layer_1-2" data-name="Layer 1">
    <g>
      <path class="cls-2" d="M64.85,406.24c0,6.41-1,12-2.99,16.77-2,4.77-4.83,8.73-8.49,11.86-3.67,3.13-8.14,5.49-13.41,7.05-5.27,1.57-11.18,2.35-17.74,2.35-2.99,0-6.48-.13-10.47-.37-3.99-.25-7.91-.76-11.75-1.55v-72.12c3.85-.71,7.85-1.19,12.02-1.44,4.17-.25,7.75-.37,10.74-.37,6.34,0,12.09.71,17.25,2.14,5.16,1.43,9.6,3.67,13.3,6.73,3.7,3.06,6.55,6.98,8.55,11.75,1.99,4.77,2.99,10.51,2.99,17.2ZM16.67,429.74c.78.07,1.69.12,2.72.16,1.03.04,2.26.05,3.69.05,8.33,0,14.51-2.1,18.54-6.3,4.02-4.2,6.04-10.01,6.04-17.42s-1.92-13.64-5.77-17.63c-3.85-3.99-9.94-5.98-18.27-5.98-1.14,0-2.32.02-3.53.05-1.21.04-2.35.12-3.42.27v46.8Z"/>
      <path class="cls-2" d="M100.43,368.42c11.11,0,19.62,1.98,25.53,5.93,5.91,3.95,8.87,10.1,8.87,18.43,0,5.2-1.19,9.42-3.58,12.66-2.39,3.24-5.82,5.79-10.31,7.64,1.5,1.85,3.06,3.97,4.7,6.36,1.64,2.39,3.26,4.88,4.86,7.48,1.6,2.6,3.15,5.31,4.65,8.12,1.5,2.81,2.88,5.57,4.17,8.28h-18.63c-1.36-2.42-2.74-4.88-4.13-7.37-1.39-2.49-2.82-4.91-4.29-7.26s-2.92-4.58-4.34-6.68c-1.43-2.1-2.86-4.01-4.29-5.72h-8.23v27.03h-16.67v-72.97c3.63-.71,7.39-1.21,11.27-1.5,3.88-.28,7.35-.43,10.42-.43ZM101.39,382.63c-1.21,0-2.3.04-3.26.11-.96.07-1.87.14-2.72.21v20.09h4.7c6.27,0,10.75-.78,13.46-2.35,2.71-1.57,4.06-4.24,4.06-8.01s-1.37-6.21-4.11-7.75c-2.74-1.53-6.78-2.3-12.13-2.3Z"/>
      <path class="cls-2" d="M150,443.31v-74.04h50v14h-33.33v14.53h29.59v13.68h-29.59v17.84h35.79v14h-52.46Z"/>
      <path class="cls-2" d="M264.42,443.31c-.83-2.57-1.71-5.21-2.66-7.93-.95-2.71-5.85-18.66-6.79-21.35h-21.17c-.93,2.7-5.66,18.66-6.6,21.37-.94,2.71-1.82,5.35-2.62,7.9h-17.31c2.79-7.98,5.43-15.35,7.93-22.12,2.5-6.77,4.95-13.14,7.34-19.12s4.75-11.66,7.07-17.04c2.32-5.38,4.73-10.63,7.24-15.76h15.8c2.43,5.13,4.83,10.38,7.19,15.76,2.36,5.38,4.74,11.06,7.14,17.04,2.4,5.98,4.85,12.36,7.35,19.12,2.5,6.77,5.15,14.14,7.94,22.12h-17.85ZM244.39,386.05c-.37,1.08-.92,2.54-1.63,4.39-.72,1.85-1.53,3.99-2.45,6.42-.92,2.43-1.94,5.1-3.07,8.01-1.13,2.92-2.28,5.97-3.45,9.17h21.17c-1.13-3.21-2.23-6.28-3.29-9.2s-2.07-5.6-3.03-8.03c-.96-2.42-1.79-4.56-2.52-6.41-.72-1.85-1.3-3.3-1.75-4.35Z"/>
      <path class="cls-2" d="M311.44,369.27c1.29,2.35,2.77,5.25,4.45,8.71,1.68,3.46,3.43,7.2,5.25,11.22,1.82,4.02,3.62,8.14,5.41,12.34,1.78,4.2,3.46,8.16,5.04,11.86,1.57-3.7,3.25-7.66,5.03-11.86,1.79-4.2,3.59-8.32,5.41-12.34,1.82-4.02,3.57-7.76,5.25-11.22,1.68-3.45,3.16-6.36,4.45-8.71h15.17c.71,4.91,1.37,10.42,1.98,16.51.6,6.09,1.14,12.43,1.6,19.02.46,6.59.89,13.19,1.28,19.82.39,6.62.73,12.86,1.01,18.7h-16.24c-.21-7.19-.5-15.03-.86-23.5-.36-8.48-.89-17.02-1.6-25.64-1.29,2.99-2.72,6.3-4.29,9.94-1.57,3.63-3.13,7.26-4.66,10.9s-3.02,7.1-4.45,10.42c-1.43,3.31-2.64,6.14-3.64,8.49h-11.65c-1-2.35-2.21-5.18-3.64-8.49-1.43-3.31-2.91-6.78-4.45-10.42s-3.09-7.27-4.66-10.9c-1.57-3.63-3-6.95-4.29-9.94-.71,8.62-1.25,17.17-1.6,25.64-.36,8.48-.64,16.31-.85,23.5h-16.24c.28-5.84.62-12.07,1.01-18.7.39-6.62.82-13.23,1.28-19.82.46-6.59,1-12.93,1.6-19.02.6-6.09,1.26-11.59,1.98-16.51h15.92Z"/>
      <path class="cls-2" d="M407.8,430.6c2.35,0,4.29-.2,5.82-.59,1.53-.39,2.76-.92,3.69-1.6.93-.68,1.57-1.48,1.92-2.4.36-.93.53-1.96.53-3.1,0-2.42-1.14-4.43-3.42-6.04-2.28-1.6-6.2-3.33-11.75-5.18-2.42-.85-4.84-1.83-7.26-2.94-2.42-1.1-4.59-2.49-6.52-4.17-1.92-1.67-3.49-3.7-4.7-6.09-1.21-2.39-1.82-5.29-1.82-8.71s.64-6.5,1.92-9.24c1.28-2.74,3.1-5.08,5.45-7,2.35-1.92,5.2-3.4,8.55-4.43,3.35-1.03,7.12-1.55,11.33-1.55,4.98,0,9.29.53,12.93,1.6,3.63,1.07,6.62,2.24,8.97,3.53l-4.81,13.14c-2.07-1.07-4.36-2.01-6.89-2.83-2.53-.82-5.57-1.23-9.13-1.23-3.99,0-6.86.55-8.6,1.66-1.75,1.11-2.62,2.8-2.62,5.08,0,1.35.32,2.49.96,3.42.64.93,1.55,1.76,2.72,2.51,1.17.75,2.53,1.42,4.06,2.03,1.53.61,3.22,1.23,5.08,1.87,3.85,1.43,7.19,2.83,10.04,4.22,2.85,1.39,5.22,3.01,7.1,4.86,1.89,1.85,3.29,4.03,4.22,6.52.92,2.49,1.39,5.52,1.39,9.08,0,6.91-2.42,12.27-7.27,16.08-4.84,3.81-12.14,5.72-21.9,5.72-3.28,0-6.23-.2-8.87-.59-2.64-.39-4.97-.87-7-1.44s-3.78-1.17-5.24-1.82c-1.46-.64-2.69-1.25-3.69-1.82l4.7-13.25c2.21,1.21,4.93,2.3,8.17,3.26,3.24.96,7.21,1.44,11.91,1.44Z"/>
      <path class="cls-2" d="M520.09,369.27h16.67v74.04h-16.67v-31.41h-27.99v31.41h-16.67v-74.04h16.67v28.31h27.99v-28.31Z"/>
      <path class="cls-2" d="M624.37,406.24c0,6.34-.94,11.91-2.83,16.72-1.89,4.81-4.47,8.83-7.75,12.07-3.28,3.24-7.18,5.68-11.7,7.32-4.52,1.64-9.39,2.46-14.58,2.46s-9.83-.82-14.32-2.46-8.41-4.08-11.75-7.32c-3.35-3.24-5.98-7.26-7.91-12.07-1.92-4.81-2.88-10.38-2.88-16.72s1-11.91,2.99-16.72c1.99-4.81,4.68-8.85,8.07-12.13,3.38-3.28,7.3-5.73,11.75-7.37,4.45-1.64,9.13-2.46,14.05-2.46s9.83.82,14.32,2.46c4.49,1.64,8.4,4.1,11.75,7.37,3.35,3.28,5.98,7.32,7.91,12.13,1.92,4.81,2.88,10.38,2.88,16.72ZM567.85,406.24c0,3.63.44,6.91,1.33,9.83.89,2.92,2.17,5.43,3.85,7.53,1.67,2.1,3.72,3.72,6.14,4.86,2.42,1.14,5.2,1.71,8.33,1.71s5.82-.57,8.28-1.71c2.46-1.14,4.52-2.76,6.2-4.86,1.67-2.1,2.96-4.61,3.85-7.53.89-2.92,1.33-6.2,1.33-9.83s-.45-6.93-1.33-9.88c-.89-2.96-2.17-5.48-3.85-7.59-1.67-2.1-3.74-3.72-6.2-4.86-2.46-1.14-5.22-1.71-8.28-1.71s-5.91.59-8.33,1.76c-2.42,1.17-4.47,2.81-6.14,4.92-1.67,2.1-2.96,4.63-3.85,7.58-.89,2.96-1.33,6.21-1.33,9.78Z"/>
      <path class="cls-2" d="M667.21,444.81c-5.2,0-9.69-.73-13.46-2.19-3.78-1.46-6.89-3.49-9.35-6.09-2.46-2.6-4.27-5.7-5.45-9.29-1.17-3.6-1.76-7.57-1.76-11.91v-46.05h16.67v44.66c0,2.99.34,5.54,1.01,7.64.68,2.1,1.6,3.81,2.78,5.13,1.17,1.32,2.6,2.26,4.27,2.83,1.67.57,3.51.85,5.5.85,4.06,0,7.35-1.25,9.88-3.74,2.53-2.49,3.79-6.73,3.79-12.71v-44.66h16.67v46.05c0,4.35-.61,8.33-1.82,11.97-1.21,3.63-3.06,6.75-5.56,9.35-2.49,2.6-5.66,4.61-9.51,6.04-3.85,1.42-8.41,2.14-13.67,2.14Z"/>
      <path class="cls-2" d="M733.98,430.6c2.35,0,4.29-.2,5.82-.59,1.53-.39,2.76-.92,3.69-1.6.92-.68,1.57-1.48,1.92-2.4.36-.93.53-1.96.53-3.1,0-2.42-1.14-4.43-3.42-6.04-2.28-1.6-6.2-3.33-11.75-5.18-2.42-.85-4.84-1.83-7.27-2.94-2.42-1.1-4.59-2.49-6.52-4.17-1.92-1.67-3.49-3.7-4.7-6.09-1.21-2.39-1.82-5.29-1.82-8.71s.64-6.5,1.92-9.24c1.28-2.74,3.1-5.08,5.45-7s5.2-3.4,8.55-4.43c3.35-1.03,7.12-1.55,11.33-1.55,4.99,0,9.29.53,12.93,1.6s6.62,2.24,8.97,3.53l-4.81,13.14c-2.07-1.07-4.36-2.01-6.89-2.83-2.53-.82-5.57-1.23-9.13-1.23-3.99,0-6.86.55-8.6,1.66-1.75,1.11-2.62,2.8-2.62,5.08,0,1.35.32,2.49.96,3.42.64.93,1.55,1.76,2.72,2.51,1.18.75,2.53,1.42,4.06,2.03,1.53.61,3.22,1.23,5.07,1.87,3.85,1.43,7.19,2.83,10.04,4.22,2.85,1.39,5.22,3.01,7.11,4.86,1.89,1.85,3.29,4.03,4.22,6.52.93,2.49,1.39,5.52,1.39,9.08,0,6.91-2.42,12.27-7.26,16.08-4.84,3.81-12.14,5.72-21.9,5.72-3.28,0-6.23-.2-8.87-.59-2.64-.39-4.97-.87-7-1.44-2.03-.57-3.78-1.17-5.23-1.82-1.46-.64-2.69-1.25-3.69-1.82l4.7-13.25c2.21,1.21,4.93,2.3,8.17,3.26,3.24.96,7.21,1.44,11.91,1.44Z"/>
      <path class="cls-2" d="M775.97,443.31v-74.04h50v14h-33.33v14.53h29.59v13.68h-29.59v17.84h35.79v14h-52.46Z"/>
    </g>
    <g>
      <path class="cls-2" d="M205.61,507.91h-14.4c-3.9,0-5.72-.88-5.72-5.51v-4.26c0-.99.42-1.4,1.4-1.4h2.5c.99,0,1.4.42,1.4,1.4v2.91c0,1.51.31,1.82,1.87,1.82h11.44c1.56,0,1.87-.31,1.87-1.82v-7.54c0-1.51-.31-1.82-1.87-1.82h-12.95c-3.9,0-5.72-.88-5.72-5.51v-10.3c0-4.63,1.82-5.51,5.72-5.51h14.4c3.9,0,5.72.88,5.72,5.51v4.26c0,.99-.42,1.4-1.4,1.4h-2.55c-.99,0-1.4-.42-1.4-1.4v-2.86c0-1.51-.31-1.82-1.87-1.82h-11.44c-1.56,0-1.87.31-1.87,1.82v7.54c0,1.51.31,1.82,1.87,1.82h13c3.9,0,5.72.88,5.72,5.51v10.24c0,4.63-1.82,5.51-5.72,5.51Z"/>
      <path class="cls-2" d="M275.18,506.51c0,.99-.42,1.4-1.4,1.4h-2.5c-.99,0-1.4-.42-1.4-1.4v-20.28c0-1.51-.31-1.82-1.87-1.82h-8.11c-1.56,0-1.87.31-1.87,1.82v20.28c0,.99-.42,1.4-1.4,1.4h-2.5c-.99,0-1.4-.42-1.4-1.4v-20.28c0-1.51-.31-1.82-1.87-1.82h-8.22c-1.56,0-1.87.31-1.87,1.82v20.28c0,.99-.42,1.4-1.4,1.4h-2.55c-.99,0-1.4-.42-1.4-1.4v-21.68c0-4.63,1.82-5.51,5.72-5.51h9.83c1.98,0,3.48.26,4.42,2.08.94-1.82,2.34-2.08,4.32-2.08h9.78c3.9,0,5.72.88,5.72,5.51v21.68Z"/>
      <path class="cls-2" d="M317.09,507.91h-12.64c-3.9,0-5.72-.88-5.72-5.51v-6.86c0-4.63,1.82-5.51,5.72-5.51h13v-3.8c0-1.51-.31-1.82-1.87-1.82h-14.87c-.99,0-1.4-.42-1.4-1.4v-2.29c0-.99.42-1.4,1.4-1.4h16.38c3.9,0,5.72.88,5.72,5.51v17.58c0,4.63-1.82,5.51-5.72,5.51ZM317.46,501.05v-5.93h-11.54c-1.56,0-1.87.31-1.87,1.82v4.11c0,1.51.31,1.82,1.87,1.82h9.67c1.56,0,1.87-.31,1.87-1.82Z"/>
      <path class="cls-2" d="M352.14,506.51c0,.99-.42,1.4-1.4,1.4h-2.55c-.99,0-1.4-.42-1.4-1.4v-21.68c0-4.63,1.82-5.51,5.72-5.51h10.3c.99,0,1.4.42,1.4,1.4v2.29c0,.99-.42,1.4-1.4,1.4h-8.79c-1.56,0-1.87.31-1.87,1.82v20.28Z"/>
      <path class="cls-2" d="M400.19,506.51c0,.99-.42,1.4-1.4,1.4h-4.16c-3.9,0-5.72-.88-5.72-5.51v-17.99h-3.33c-.99,0-1.4-.42-1.4-1.4v-2.29c0-.99.42-1.4,1.4-1.4h3.33v-9.31c0-.99.42-1.4,1.4-1.4h2.55c.99,0,1.4.42,1.4,1.4v9.31h4.52c.99,0,1.4.42,1.4,1.4v2.29c0,.99-.42,1.4-1.4,1.4h-4.52v16.64c0,1.51.31,1.82,1.87,1.82h2.65c.99,0,1.4.42,1.4,1.4v2.24Z"/>
      <path class="cls-2" d="M470.8,507.91h-18.36c-.99,0-1.4-.42-1.4-1.4v-34.74c0-.99.42-1.4,1.4-1.4h18.3c3.9,0,5.72.88,5.72,5.51v8.68c0,2.65-.57,4.06-2.08,4.78,1.51.73,2.13,2.18,2.13,4.78v8.27c0,4.63-1.82,5.51-5.72,5.51ZM471.17,484.77v-7.49c0-1.51-.31-1.82-1.87-1.82h-12.9v11.08h12.9c1.66,0,1.87-.31,1.87-1.77ZM471.17,501.1v-7.59c0-1.51-.31-1.82-1.87-1.82h-12.9v11.18h12.9c1.66,0,1.87-.31,1.87-1.77Z"/>
      <path class="cls-2" d="M519.27,507.91h-12.64c-3.9,0-5.72-.88-5.72-5.51v-21.68c0-.99.42-1.4,1.4-1.4h2.55c.99,0,1.4.42,1.4,1.4v20.33c0,1.51.31,1.82,1.87,1.82h9.67c1.56,0,1.87-.31,1.87-1.82v-20.33c0-.99.42-1.4,1.4-1.4h2.5c.99,0,1.4.42,1.4,1.4v21.68c0,4.63-1.82,5.51-5.72,5.51Z"/>
      <path class="cls-2" d="M557.07,506.51c0,.99-.42,1.4-1.4,1.4h-2.5c-.99,0-1.4-.42-1.4-1.4v-22.1h-3.69c-.99,0-1.4-.42-1.4-1.4v-2.29c0-.99.42-1.4,1.4-1.4h7.59c.99,0,1.4.42,1.4,1.4v25.79ZM557.07,474.06c0,.99-.42,1.4-1.4,1.4h-2.5c-.99,0-1.4-.42-1.4-1.4v-2.29c0-.99.42-1.4,1.4-1.4h2.5c.99,0,1.4.42,1.4,1.4v2.29Z"/>
      <path class="cls-2" d="M592.48,506.51c0,.99-.42,1.4-1.4,1.4h-4.16c-3.9,0-5.72-.88-5.72-5.51v-34.68c0-.99.42-1.4,1.4-1.4h2.55c.99,0,1.4.42,1.4,1.4v33.33c0,1.51.31,1.82,1.87,1.82h2.65c.99,0,1.4.42,1.4,1.4v2.24Z"/>
      <path class="cls-2" d="M632.47,507.91h-12.64c-3.9,0-5.72-.88-5.72-5.51v-17.58c0-4.63,1.82-5.51,5.72-5.51h13.05v-11.6c0-.99.42-1.4,1.4-1.4h2.5c.99,0,1.4.42,1.4,1.4v34.68c0,4.63-1.82,5.51-5.72,5.51ZM632.89,501.05v-16.64h-11.54c-1.56,0-1.87.31-1.87,1.82v14.82c0,1.51.31,1.82,1.87,1.82h9.67c1.56,0,1.87-.31,1.87-1.82Z"/>
    </g>
    <path class="cls-1" d="M593.63,341.37c-2.28,0-4.57-.59-6.61-1.77l-59.51-34.35c-4.09-2.36-6.61-6.73-6.61-11.45v-133.61l-109.09-62.99-109.09,62.99v110.7l33.06-19.09v-64.9c0-4.72,2.52-9.09,6.61-11.45l62.81-36.26c4.09-2.36,9.13-2.36,13.22,0l62.81,36.26c4.09,2.36,6.61,6.73,6.61,11.45v72.53c0,7.3-5.92,13.22-13.22,13.22s-13.22-5.92-13.22-13.22v-64.9l-49.59-28.63-49.59,28.63v64.9c0,4.72-2.52,9.09-6.61,11.45l-59.51,34.36c-4.09,2.36-9.13,2.36-13.22,0-4.09-2.36-6.61-6.73-6.61-11.45v-141.24c0-4.73,2.52-9.09,6.61-11.45l122.32-70.62c4.09-2.36,9.13-2.36,13.22,0l122.32,70.62c4.09,2.36,6.61,6.73,6.61,11.45v133.6l33.06,19.09V125.83L411.81,28.49l-168.6,97.34v202.31c0,7.3-5.92,13.22-13.22,13.22s-13.22-5.92-13.22-13.22V118.2c0-4.72,2.52-9.09,6.61-11.45L405.2,1.77c4.09-2.36,9.13-2.36,13.22,0l181.82,104.98c4.09,2.36,6.61,6.73,6.61,11.45v209.95c0,4.72-2.52,9.09-6.61,11.45-2.04,1.18-4.33,1.77-6.61,1.77Z"/>
  </g>
</svg>